# xmcd CD database file
#
# Track frame offsets:
#	150
#	21909
#	44475
#	66339
#	82325
#	94700
#	105856
#
# Disc length: 1714 seconds
#
# Revision: 0
# Processed by: cddbd v1.5.2PL0 Copyright (c) Steve Scherf et al.
# Submitted via: CDex 1.70beta2
#
DISCID=5706b007
DTITLE=Dos Pueblos High School Jazz Choir - Blue Ribbon Jazz
DYEAR=2001
DGENRE=Jazz
TTITLE0=Li'l Darlin'
TTITLE1=Is You Is Or Is You Ain't (My Baby)
TTITLE2=Ain't No Sunshine
TTITLE3=Giant Steps
TTITLE4=Take the 'A' Train
TTITLE5=Silence of Time
TTITLE6=All Blues
EXTD=YEAR: 2001
EXTT0=
EXTT1=
EXTT2=
EXTT3=
EXTT4=
EXTT5=
EXTT6=
PLAYORDER=
